<svg width="8" height="8" viewBox="0 0 8 8" fill="none" xmlns="http://www.w3.org/2000/svg">
<path d="M5.94379 5.46289L6.48383 4.52637L4.95941 3.67188L6.48383 2.80371L5.95062 1.86035L4.5014 2.74219L4.5766 1.13574H3.33929L3.41449 2.73535L1.95844 1.86035L1.43207 2.80371L2.94965 3.66504L1.43207 4.51953L1.95844 5.46289L3.41449 4.58789L3.33246 6.19434H4.5766L4.5014 4.58789L5.94379 5.46289Z" fill="white"/>
<path d="M5.94379 5.46289L5.42513 6.31787L6.29931 6.84818L6.81008 5.96243L5.94379 5.46289ZM6.48383 4.52637L7.35012 5.02591L7.85577 4.14901L6.97279 3.65406L6.48383 4.52637ZM4.95941 3.67188L4.46453 2.80291L2.92658 3.67878L4.47045 4.54418L4.95941 3.67188ZM6.48383 2.80371L6.97871 3.67267L7.84485 3.1794L7.35439 2.31165L6.48383 2.80371ZM5.95062 1.86035L6.82119 1.36829L6.31303 0.469249L5.4308 1.00608L5.95062 1.86035ZM4.5014 2.74219L3.5025 2.69543L3.41456 4.5741L5.02122 3.59646L4.5014 2.74219ZM4.5766 1.13574L5.57551 1.1825L5.6245 0.135742H4.5766V1.13574ZM3.33929 1.13574V0.135742H2.29118L2.3404 1.1827L3.33929 1.13574ZM3.41449 2.73535L2.8994 3.59249L4.50113 4.55503L4.41339 2.68839L3.41449 2.73535ZM1.95844 1.86035L2.47352 1.00321L1.58836 0.471285L1.08517 1.3731L1.95844 1.86035ZM1.43207 2.80371L0.558808 2.31646L0.075092 3.18338L0.938462 3.6734L1.43207 2.80371ZM2.94965 3.66504L3.44028 4.5364L4.98167 3.66851L3.44325 2.79535L2.94965 3.66504ZM1.43207 4.51953L0.941434 3.64817L0.0734379 4.1369L0.558808 5.00679L1.43207 4.51953ZM1.95844 5.46289L1.08517 5.95014L1.58836 6.85196L2.47352 6.32003L1.95844 5.46289ZM3.41449 4.58789L4.41319 4.63889L4.50895 2.76351L2.8994 3.73075L3.41449 4.58789ZM3.33246 6.19434L2.33376 6.14334L2.28009 7.19434H3.33246V6.19434ZM4.5766 6.19434V7.19434H5.6245L5.57551 6.14758L4.5766 6.19434ZM4.5014 4.58789L5.02006 3.73291L3.4147 2.75904L3.5025 4.63465L4.5014 4.58789ZM6.81008 5.96243L7.35012 5.02591L5.61753 4.02683L5.0775 4.96335L6.81008 5.96243ZM6.97279 3.65406L5.44837 2.79957L4.47045 4.54418L5.99487 5.39867L6.97279 3.65406ZM5.45429 4.54084L6.97871 3.67267L5.98895 1.93475L4.46453 2.80291L5.45429 4.54084ZM7.35439 2.31165L6.82119 1.36829L5.08006 2.35241L5.61326 3.29577L7.35439 2.31165ZM5.4308 1.00608L3.98158 1.88791L5.02122 3.59646L6.47044 2.71463L5.4308 1.00608ZM5.50031 2.78894L5.57551 1.1825L3.57769 1.08898L3.5025 2.69543L5.50031 2.78894ZM4.5766 0.135742H3.33929V2.13574H4.5766V0.135742ZM2.3404 1.1827L2.41559 2.78231L4.41339 2.68839L4.33819 1.08879L2.3404 1.1827ZM3.92958 1.87821L2.47352 1.00321L1.44335 2.71749L2.8994 3.59249L3.92958 1.87821ZM1.08517 1.3731L0.558808 2.31646L2.30533 3.29096L2.8317 2.34761L1.08517 1.3731ZM0.938462 3.6734L2.45604 4.53472L3.44325 2.79535L1.92567 1.93403L0.938462 3.6734ZM2.45901 2.79367L0.941434 3.64817L1.9227 5.3909L3.44028 4.5364L2.45901 2.79367ZM0.558808 5.00679L1.08517 5.95014L2.8317 4.97564L2.30533 4.03228L0.558808 5.00679ZM2.47352 6.32003L3.92958 5.44503L2.8994 3.73075L1.44335 4.60575L2.47352 6.32003ZM2.41579 4.53689L2.33376 6.14334L4.33116 6.24533L4.41319 4.63889L2.41579 4.53689ZM3.33246 7.19434H4.5766V5.19434H3.33246V7.19434ZM5.57551 6.14758L5.50031 4.54113L3.5025 4.63465L3.57769 6.24109L5.57551 6.14758ZM3.98274 5.44287L5.42513 6.31787L6.46245 4.60791L5.02006 3.73291L3.98274 5.44287Z" fill="black"/>
</svg>
